<?xml version="1.0" encoding="iso-8859-1"?>
<!-- Generator: Adobe Illustrator 19.0.0, SVG Export Plug-In . SVG Version: 6.00 Build 0)  -->
<svg xmlns="http://www.w3.org/2000/svg" xmlns:xlink="http://www.w3.org/1999/xlink" version="1.1" id="Layer_1" x="0px" y="0px" viewBox="0 0 512 512" style="enable-background:new 0 0 512 512;" xml:space="preserve">
<g>
	<rect x="372.191" y="446.911" style="fill:#1F1A78;" width="38.672" height="56.919"/>
	<rect x="101.136" y="446.911" style="fill:#1F1A78;" width="38.672" height="56.919"/>
</g>
<path style="fill:#DB412C;" d="M372.739,8.17H139.261c-26.962,0-49.021,22.06-49.021,49.021v389.719  c0,5.991,4.902,10.894,10.894,10.894h309.734c5.991,0,10.894-4.902,10.894-10.894V57.191C421.761,30.23,399.701,8.17,372.739,8.17z"/>
<rect x="90.243" y="57.191" style="fill:#FFFFFF;" width="331.525" height="93.543"/>
<path style="fill:#C92810;" d="M298.082,416.409h-84.164c-4.512,0-8.17-3.658-8.17-8.17c0-4.512,3.658-8.17,8.17-8.17h84.165  c4.512,0,8.17,3.658,8.17,8.17C306.253,412.75,302.594,416.409,298.082,416.409z"/>
<rect x="90.417" y="216.097" style="fill:#FFFFFF;" width="165.583" height="142.565"/>
<rect x="256" y="216.097" style="fill:#85C5FF;" width="165.583" height="142.565"/>
<g>
	<circle style="fill:#FFD83D;" cx="139.809" cy="408.238" r="16.885"/>
	<circle style="fill:#FFD83D;" cx="372.191" cy="408.238" r="16.885"/>
</g>
<path d="M298.082,400.068h-84.164c-4.512,0-8.17,3.658-8.17,8.17c0,4.512,3.658,8.17,8.17,8.17h84.165c4.512,0,8.17-3.658,8.17-8.17  C306.253,403.726,302.594,400.068,298.082,400.068z"/>
<path d="M440.137,207.932h-10.206V57.191C429.931,25.656,404.275,0,372.739,0H139.261c-31.536,0-57.191,25.656-57.191,57.191v150.74  H71.863c-12.314,0-22.332,10.018-22.332,22.332v55.428c0,4.512,3.658,8.17,8.17,8.17s8.17-3.658,8.17-8.17v-55.428  c0-3.304,2.687-5.991,5.991-5.991h10.206v222.638c0,7.585,4.464,14.131,10.894,17.198v39.721c0,4.512,3.658,8.17,8.17,8.17h38.672  c4.512,0,8.17-3.658,8.17-8.17v-13.345c0-4.512-3.658-8.17-8.17-8.17c-4.512,0-8.17,3.658-8.17,8.17v5.174h-22.332v-29.685h293.393  v29.685h-22.332v-5.174c0-4.512-3.658-8.17-8.17-8.17s-8.17,3.658-8.17,8.17v13.345c0,4.512,3.658,8.17,8.17,8.17h38.672  c4.512,0,8.17-3.658,8.17-8.17v-39.721c6.429-3.068,10.894-9.613,10.894-17.198V224.272h10.206c3.304,0,5.991,2.687,5.991,5.991  v55.428c0,4.512,3.658,8.17,8.17,8.17c4.512,0,8.17-3.658,8.17-8.17v-55.428C462.469,217.95,452.451,207.932,440.137,207.932z   M98.41,65.362H413.59v77.209H98.41V65.362z M139.261,16.34h233.479c19.728,0,36.233,14.057,40.029,32.681H99.232  C103.027,30.398,119.532,16.34,139.261,16.34z M98.41,158.911H413.59v49.021H98.41V158.911z M413.59,446.911  c0,1.476-1.247,2.723-2.723,2.723H101.133c-1.476,0-2.723-1.247-2.723-2.723V224.272h149.42v126.23H122.92  c-4.512,0-8.17,3.658-8.17,8.17c0,4.512,3.658,8.17,8.17,8.17H389.08c4.512,0,8.17-3.658,8.17-8.17c0-4.512-3.658-8.17-8.17-8.17  H264.17v-126.23h149.42V446.911z"/>
<path d="M139.805,383.183c-13.815,0-25.055,11.24-25.055,25.055c0,13.815,11.24,25.055,25.055,25.055  c13.815,0,25.055-11.24,25.055-25.055C164.861,394.423,153.621,383.183,139.805,383.183z M139.805,416.953  c-4.805,0-8.715-3.91-8.715-8.715s3.91-8.715,8.715-8.715s8.715,3.91,8.715,8.715S144.611,416.953,139.805,416.953z"/>
<path d="M372.195,383.183c-13.815,0-25.055,11.24-25.055,25.055c0,13.815,11.24,25.055,25.055,25.055  c13.815,0,25.055-11.24,25.055-25.055C397.25,394.423,386.01,383.183,372.195,383.183z M372.195,416.953  c-4.805,0-8.715-3.91-8.715-8.715s3.91-8.715,8.715-8.715s8.715,3.91,8.715,8.715S377,416.953,372.195,416.953z"/>
<path d="M397.25,183.421c0-4.512-3.658-8.17-8.17-8.17H122.92c-4.512,0-8.17,3.658-8.17,8.17c0,4.512,3.658,8.17,8.17,8.17H389.08  C393.592,191.591,397.25,187.933,397.25,183.421z"/>
<g>
</g>
<g>
</g>
<g>
</g>
<g>
</g>
<g>
</g>
<g>
</g>
<g>
</g>
<g>
</g>
<g>
</g>
<g>
</g>
<g>
</g>
<g>
</g>
<g>
</g>
<g>
</g>
<g>
</g>
</svg>
